<?xml version="1.0" standalone="no"?>
<!DOCTYPE svg PUBLIC "-//W3C//DTD SVG 20010904//EN"
 "http://www.w3.org/TR/2001/REC-SVG-20010904/DTD/svg10.dtd">
<svg version="1.0" xmlns="http://www.w3.org/2000/svg"
 width="316.000000pt" height="225.000000pt" viewBox="0 0 316.000000 225.000000"
 preserveAspectRatio="xMidYMid meet">

<g transform="translate(0.000000,225.000000) scale(0.100000,-0.100000)"
fill="#000000" stroke="none">
<path d="M0 1450 c0 -501 4 -800 10 -800 13 0 22 54 21 135 0 39 -2 282 -4
540 -3 358 0 492 10 564 7 51 11 110 7 130 -5 30 -4 34 7 23 10 -9 14 -39 14
-95 0 -45 4 -88 9 -96 14 -22 29 -228 28 -391 0 -58 0 -125 -1 -150 0 -25 -3
-64 -6 -87 -6 -33 -2 -53 15 -88 12 -25 26 -45 32 -45 5 0 3 -6 -5 -14 -20
-20 -26 -110 -29 -374 -1 -141 -5 -228 -12 -237 -6 -8 -26 -17 -44 -20 l-32
-5 6 68 c5 55 4 70 -10 81 -15 12 -16 5 -16 -78 0 -74 3 -91 15 -91 18 0 20
-21 3 -39 -11 -12 -9 -13 7 -7 18 5 18 4 -2 -13 -15 -12 -23 -30 -23 -49 0
-28 3 -31 43 -37 23 -4 47 -6 52 -5 24 5 33 -2 32 -25 0 -14 -4 -28 -10 -32
-7 -4 -8 0 -4 11 5 14 3 17 -8 12 -9 -3 -15 0 -15 9 0 22 -33 18 -48 -5 -7
-11 -19 -20 -27 -20 -12 0 -15 -19 -15 -110 l0 -110 60 0 c36 0 60 4 60 11 0
17 -27 39 -48 39 -11 0 -22 6 -25 14 -7 17 11 36 33 36 9 0 24 8 33 18 11 12
30 18 56 17 48 -1 68 -15 23 -15 -22 0 -32 -5 -32 -15 0 -8 7 -15 15 -15 8 0
15 -5 15 -12 0 -6 7 -20 17 -30 9 -10 12 -18 6 -18 -5 0 -16 11 -23 25 -7 14
-19 25 -25 25 -11 0 -25 -42 -25 -71 0 -5 44 -9 98 -9 l97 0 0 143 c0 166 15
229 71 303 l36 47 -41 -6 c-32 -4 -43 -1 -51 11 -9 16 -9 16 -10 0 0 -10 -6
-18 -13 -18 -11 0 -14 63 -16 318 -1 174 -2 335 -2 357 0 45 -1 347 -3 720 -1
231 1 271 20 348 l6 27 -166 0 -166 0 0 -800z m211 128 c0 -73 2 -178 5 -233
2 -55 5 -274 8 -487 3 -326 1 -388 -10 -388 -8 0 -15 8 -15 18 -1 9 -4 31 -6
47 -2 17 -6 136 -7 266 -2 155 -8 249 -16 274 -11 32 -10 39 3 46 12 7 15 25
15 73 0 35 3 86 7 114 6 43 4 56 -13 77 -19 23 -19 29 -7 58 10 24 11 45 4 82
-9 45 -4 158 8 178 16 27 23 -9 24 -125z m-54 -1172 c2 -2 6 -43 10 -92 5 -81
9 -93 38 -129 37 -47 57 -82 25 -45 -62 72 -80 104 -80 140 0 32 -4 40 -32 53
-23 11 -36 13 -45 5 -20 -16 -16 28 5 58 13 19 23 23 46 19 16 -3 31 -7 33 -9z
m118 -296 c3 -5 1 -10 -4 -10 -6 0 -11 5 -11 10 0 6 2 10 4 10 3 0 8 -4 11
-10z m45 -30 c0 -5 -4 -10 -10 -10 -5 0 -10 5 -10 10 0 6 5 10 10 10 6 0 10
-4 10 -10z"/>
<path d="M1267 2133 c-17 -3 -25 -9 -21 -15 5 -8 1 -9 -10 -5 -11 4 -15 3 -11
-4 4 -6 -1 -9 -11 -7 -12 2 -18 -2 -16 -11 1 -7 -3 -20 -10 -29 -10 -12 -10
-14 0 -8 20 12 35 -3 20 -22 -9 -12 -7 -12 9 2 23 19 22 43 0 29 -7 -4 -7 0 1
10 8 9 17 16 20 15 4 -1 18 4 32 11 l25 12 -25 -20 c-21 -17 -23 -22 -11 -33
12 -11 13 -11 6 1 -5 9 -4 12 3 7 9 -5 8 -15 -4 -37 -8 -17 -13 -33 -10 -37 3
-3 6 -1 6 5 0 5 12 23 27 39 l26 29 -6 -27 c-5 -18 -2 -28 7 -31 9 -4 16 3 19
15 6 20 7 20 33 4 21 -14 29 -15 38 -5 8 9 7 11 -7 6 -11 -4 -16 -3 -12 3 3 6
18 10 33 10 15 0 45 5 67 11 37 10 38 12 20 25 -10 8 -27 14 -38 14 -10 0 -15
5 -12 10 7 11 -5 17 -49 24 -59 10 -112 14 -139 9z"/>
<path d="M1511 2097 c2 -2 18 -11 34 -21 l30 -17 -24 20 c-13 12 -28 21 -34
21 -6 0 -8 -1 -6 -3z"/>
<path d="M2916 2091 c-9 -14 19 -19 142 -25 85 -5 102 -3 102 9 0 12 -17 15
-89 15 -49 0 -102 3 -119 6 -17 3 -32 1 -36 -5z"/>
<path d="M1450 2030 c-11 -7 -2 -10 33 -10 30 0 46 4 42 10 -8 13 -55 13 -75
0z"/>
<path d="M1340 2009 c0 -5 5 -7 10 -4 6 3 10 8 10 11 0 2 -4 4 -10 4 -5 0 -10
-5 -10 -11z"/>
<path d="M1186 1995 c-3 -9 -6 -22 -5 -28 0 -7 5 -1 10 12 5 13 8 26 5 28 -2
2 -6 -3 -10 -12z"/>
<path d="M1190 1913 c-19 -13 -39 -32 -44 -41 -15 -26 -34 -43 -40 -34 -3 4
-1 25 4 45 4 20 4 35 0 32 -8 -5 -30 -93 -30 -118 0 -7 12 -18 27 -24 21 -10
28 -10 35 0 5 8 8 6 8 -8 0 -14 -10 -24 -30 -32 -23 -8 -30 -8 -30 0 0 8 -3 7
-9 -2 -10 -16 -16 -7 -27 39 l-7 35 -8 -35 c-4 -19 -5 -46 -3 -60 5 -20 3 -22
-5 -10 -8 11 -11 12 -11 2 0 -7 -13 -24 -29 -38 -26 -22 -28 -28 -20 -56 5
-17 13 -36 19 -42 13 -13 13 0 -1 25 -9 19 -9 19 10 10 17 -10 19 -16 11 -37
-18 -45 -12 -102 12 -126 15 -15 18 -23 9 -26 -9 -3 -6 -11 10 -28 25 -26 41
-32 33 -10 -4 9 7 15 37 19 40 5 46 3 84 -33 40 -39 125 -99 178 -127 30 -15
60 -10 92 16 19 16 19 16 2 -11 -9 -15 -17 -33 -17 -40 0 -7 10 6 22 29 13 25
33 47 50 54 42 17 41 25 0 23 -85 -4 -120 16 -129 72 -6 37 -5 38 12 24 17
-14 17 -14 7 7 -7 12 -12 24 -12 27 0 12 38 6 42 -6 3 -8 31 -13 76 -14 62 -2
72 1 77 17 4 10 4 22 1 27 -2 4 6 9 20 10 13 1 24 -4 24 -11 1 -17 16 12 24
45 5 22 3 26 -9 21 -9 -3 -22 2 -30 13 -13 18 -14 17 -15 -13 0 -26 -4 -33
-19 -33 -11 0 -22 4 -25 9 -4 5 -27 16 -52 25 l-47 16 37 -36 c20 -19 36 -39
36 -44 0 -22 -116 -3 -131 21 -4 7 8 26 30 46 l36 34 -50 -31 c-30 -18 -53
-40 -57 -55 -3 -15 -2 -23 3 -19 5 3 9 -7 9 -22 0 -21 -3 -25 -11 -17 -6 6
-17 9 -25 6 -15 -5 -46 21 -63 55 -14 27 -6 80 22 142 22 47 40 66 45 50 4
-12 42 -13 60 -1 8 4 12 12 10 17 -1 5 8 11 22 12 21 4 22 2 11 -12 -17 -20
-12 -26 28 -31 20 -2 37 2 47 13 15 15 15 17 -5 33 -17 14 -36 17 -87 14 -69
-3 -89 9 -64 40 9 10 9 15 1 15 -6 0 -11 9 -11 19 0 24 -16 36 -23 19 -3 -7
-6 13 -6 45 -1 33 -5 57 -12 57 -5 0 -8 -4 -5 -9 3 -5 -1 -26 -10 -47 -11 -26
-14 -54 -11 -86 5 -40 3 -48 -17 -61 -19 -13 -27 -13 -55 -1 -32 14 -33 16
-29 58 3 25 15 57 27 72 11 15 21 32 21 38 0 6 -9 0 -20 -14 -26 -33 -26 -7 0
36 26 41 15 48 -30 17z m149 -157 c-3 -3 -11 5 -18 17 -13 21 -12 21 5 5 10
-10 16 -20 13 -22z m-162 2 c-3 -8 -6 -5 -6 6 -1 11 2 17 5 13 3 -3 4 -12 1
-19z m-63 -115 c3 -7 1 -13 -4 -13 -10 0 2 -49 19 -77 10 -15 11 -12 7 17 -4
32 -4 34 10 16 21 -29 18 -56 -7 -56 -13 0 -18 -4 -13 -11 11 -18 -85 -5 -103
13 -13 13 -11 19 16 49 19 20 31 28 31 19 0 -13 2 -13 10 0 7 11 5 19 -10 32
-11 9 -20 22 -20 30 0 10 3 9 10 -2 8 -13 10 -12 10 3 0 15 3 15 20 5 11 -7
22 -18 24 -25z m-111 2 c-3 -9 -8 -14 -10 -11 -3 3 -2 9 2 15 9 16 15 13 8 -4z
m187 0 c0 -12 -4 -13 -19 -5 -14 7 -21 6 -24 -3 -2 -6 -8 -8 -13 -4 -10 10 14
27 39 27 9 0 17 -7 17 -15z m65 -42 c0 -24 -2 -43 -5 -44 -26 -4 -43 -8 -47
-13 -8 -8 -33 21 -33 38 0 19 16 21 23 4 2 -7 8 3 11 22 6 27 12 35 29 35 19
0 22 -5 22 -42z m-184 -144 c11 -5 17 -14 14 -20 -9 -14 -19 -11 -33 11 -14
23 -10 25 19 9z m455 -27 c-5 -8 -76 -4 -76 4 0 2 18 4 41 4 22 0 38 -4 35 -8z"/>
<path d="M1640 1926 c0 -2 7 -20 15 -39 8 -20 15 -59 15 -87 0 -27 5 -50 10
-50 6 0 10 11 10 24 0 13 4 26 9 28 14 5 -30 128 -45 128 -8 0 -14 -2 -14 -4z"/>
<path d="M1390 1784 c0 -8 5 -12 10 -9 6 3 10 10 10 16 0 5 -4 9 -10 9 -5 0
-10 -7 -10 -16z"/>
<path d="M1589 1683 c-17 -31 -3 -42 17 -15 8 12 25 21 37 21 17 -1 18 -2 5
-6 -10 -2 -18 -11 -18 -20 0 -10 6 -13 16 -9 10 4 14 1 12 -6 -3 -7 -15 -15
-29 -18 l-24 -6 23 -12 c12 -7 22 -9 23 -5 0 4 4 -2 9 -15 9 -22 11 -22 34 -6
14 8 28 24 31 35 8 25 -3 61 -17 53 -6 -4 -8 1 -3 15 4 12 2 21 -4 21 -6 0
-11 -6 -11 -12 0 -10 -2 -10 -8 -1 -4 7 -24 11 -44 10 -27 -1 -41 -8 -49 -24z"/>
<path d="M1451 1631 c-9 -6 -10 -11 -2 -15 13 -8 31 1 31 15 0 11 -11 11 -29
0z"/>
<path d="M1602 1395 c-17 -38 -14 -43 8 -15 21 27 25 40 12 40 -5 0 -14 -11
-20 -25z"/>
<path d="M1545 1378 c-16 -5 -45 -6 -64 -2 -31 5 -33 4 -21 -11 17 -20 107
-17 115 4 7 19 5 20 -30 9z"/>
<path d="M1159 1233 c-9 -10 -14 -43 -15 -92 0 -57 -9 -105 -36 -191 -19 -63
-52 -179 -73 -258 -35 -131 -39 -171 -16 -146 16 15 41 128 35 154 -4 17 -3
21 4 12 12 -17 23 34 16 69 -5 20 -4 21 6 9 9 -12 10 -11 5 7 -7 24 4 75 14
69 4 -3 7 3 7 12 2 31 75 242 84 242 13 0 40 54 40 79 0 22 -25 51 -44 51 -8
0 -20 -7 -27 -17z m-132 -645 c-3 -8 -6 -5 -6 6 -1 11 2 17 5 13 3 -3 4 -12 1
-19z"/>
<path d="M1915 1206 c-17 -12 -17 -17 -5 -45 13 -32 58 -71 81 -71 7 0 32 -19
56 -42 50 -49 68 -44 28 7 -15 20 -30 34 -33 31 -7 -8 -32 14 -32 27 0 6 7 2
15 -9 18 -24 19 -13 1 29 -12 30 -68 87 -85 87 -4 0 -16 -6 -26 -14z"/>
<path d="M595 1046 c10 -14 21 -26 26 -26 16 0 120 -134 160 -207 41 -74 56
-93 39 -48 -34 90 -123 212 -200 274 -39 31 -41 32 -25 7z"/>
<path d="M520 1016 c0 -2 8 -10 18 -17 15 -13 16 -12 3 4 -13 16 -21 21 -21
13z"/>
<path d="M1334 777 l-149 -242 -95 -3 c-52 -1 -101 -5 -107 -7 -8 -3 -13 -23
-13 -53 0 -49 -18 -81 -39 -68 -5 4 -13 31 -16 61 -8 58 -25 84 -42 63 -6 -8
-7 -47 -2 -103 9 -98 5 -125 -16 -125 -16 0 -27 36 -46 148 -7 39 -16 72 -21
72 -11 0 -2 -71 19 -154 14 -58 8 -86 -15 -72 -16 9 -75 195 -68 212 4 10 1
14 -6 11 -18 -6 -12 -61 13 -130 35 -94 3 -89 -44 7 -15 30 -27 67 -27 83 0
15 -4 43 -9 61 -8 28 -7 34 12 46 12 8 39 18 60 21 57 11 54 24 -5 21 -70 -3
-92 -17 -114 -70 -16 -39 -23 -45 -57 -49 -84 -11 -150 -97 -172 -224 -15 -80
-19 -173 -9 -173 16 0 44 23 44 35 0 8 9 15 20 15 11 0 23 7 26 15 8 19 28 19
47 0 13 -13 18 -12 44 7 l28 22 -19 -22 c-20 -23 -16 -28 34 -34 18 -2 34 -18
58 -58 32 -55 32 -55 11 -65 -17 -7 -24 -5 -36 10 -12 17 -15 18 -23 5 -5 -8
-10 -19 -10 -23 0 -5 -4 -6 -9 -2 -5 3 -13 1 -16 -5 -8 -13 384 -11 670 4 216
12 232 26 30 26 -79 0 -134 5 -160 15 -22 8 -38 15 -35 15 3 1 64 7 135 14
l130 13 -150 2 c-144 2 -149 2 -115 17 41 18 73 21 308 28 158 5 212 14 212
34 0 7 -261 6 -479 -1 -128 -5 -128 6 -1 23 47 6 87 14 89 16 2 2 -18 5 -45 6
-87 2 86 15 232 17 106 1 133 4 137 16 8 19 -8 28 -30 17 -28 -14 -247 -9
-265 6 -9 7 -22 10 -29 8 -8 -3 -64 -7 -125 -10 -110 -4 -111 -3 -93 15 15 15
34 19 90 19 43 0 68 4 64 10 -3 5 -34 8 -68 6 -55 -4 -59 -3 -42 10 10 8 31
14 46 14 43 0 89 12 89 22 0 6 -14 8 -30 6 -17 -3 -33 -1 -36 4 -3 4 24 8 59
8 51 0 66 4 71 16 4 9 9 14 13 11 3 -4 12 -2 19 3 6 6 16 9 20 8 5 -2 10 2 11
7 1 6 -4 9 -12 7 -7 -1 -15 4 -19 13 -3 8 -2 14 2 13 4 -1 20 2 35 7 19 5 25
10 17 15 -31 19 62 24 462 23 l428 0 -6 23 c-4 17 -2 24 9 24 20 0 30 -40 11
-47 -8 -3 -12 -8 -10 -12 2 -3 -80 -5 -182 -5 -133 1 -167 -1 -117 -6 127 -14
307 -12 319 4 14 17 73 29 81 16 3 -6 45 -10 93 -10 78 0 161 -7 332 -26 30
-3 60 -10 65 -16 7 -7 -4 -8 -35 -4 -167 26 -257 32 -230 17 8 -5 51 -11 95
-15 44 -3 96 -11 116 -16 36 -10 37 -11 37 -60 0 -28 -5 -50 -10 -50 -5 0 -6
-5 -3 -11 5 -7 -24 -8 -92 -5 -210 12 -388 15 -373 6 8 -5 18 -7 22 -4 22 14
498 -43 498 -59 0 -5 -10 -6 -22 -2 -13 3 -113 10 -223 15 -110 5 -213 12
-228 14 -17 4 -26 2 -22 -4 3 -6 1 -10 -4 -10 -6 0 -11 -9 -11 -21 0 -11 3
-18 8 -16 15 10 513 -20 525 -32 8 -8 6 -11 -10 -11 -12 0 -25 -4 -28 -10 -3
-5 3 -10 14 -10 11 0 23 -5 27 -11 4 -7 0 -9 -12 -6 -30 9 -452 29 -463 23 -5
-4 -14 2 -20 11 -7 14 -13 15 -21 7 -14 -14 1 -48 25 -58 9 -3 14 -2 11 3 -3
5 5 11 19 13 13 3 26 1 27 -4 2 -5 19 -11 38 -14 19 -3 50 -10 68 -16 55 -17
23 -31 -62 -26 -71 3 -95 -3 -62 -15 8 -3 81 -6 162 -7 82 -1 163 -3 179 -5
17 -1 46 -3 65 -4 34 -1 34 -1 15 -21 -19 -19 -29 -19 -228 -12 -125 4 -206 3
-204 -2 4 -13 17 -14 300 -22 236 -7 248 -6 262 12 13 17 14 17 15 2 0 -10 5
-18 10 -18 16 0 12 46 -5 60 -25 21 -17 34 10 16 23 -15 25 -15 25 -1 0 10 5
13 13 9 6 -4 9 -4 5 1 -4 4 -3 14 2 20 14 17 -63 49 -107 46 -18 -2 -33 2 -33
8 0 6 7 7 17 4 10 -4 14 -2 10 4 -4 6 2 13 13 16 11 3 20 1 20 -4 0 -5 12 -9
28 -8 l27 1 -25 7 c-24 7 -24 8 -3 15 15 5 21 16 22 39 1 18 3 46 4 62 0 17
-2 46 -7 65 -5 25 -4 31 3 20 6 -8 11 -10 11 -4 0 16 -64 96 -68 84 -2 -6 -9
-4 -18 4 -27 28 -175 47 -476 62 -189 9 -188 3 -54 216 57 89 106 175 110 191
6 24 4 27 -19 27 -15 0 -140 7 -278 15 -139 8 -340 19 -447 25 -107 6 -211 13
-231 15 l-37 5 -148 -243z m386 -147 c-13 -8 -12 -10 3 -10 9 0 17 4 17 9 0 9
208 4 218 -4 6 -5 -50 -85 -60 -85 -5 0 -6 5 -3 10 8 13 -1 13 -25 0 -12 -6
-52 -7 -109 -2 -58 5 -95 4 -101 -2 -19 -19 -10 4 21 48 17 26 36 46 42 46 7
0 6 -4 -3 -10z m-445 -130 c3 -5 -1 -10 -10 -10 -9 0 -13 5 -10 10 3 6 8 10
10 10 2 0 7 -4 10 -10z m-665 -251 c0 -4 -7 -6 -15 -3 -8 4 -15 10 -15 15 0 4
7 6 15 3 8 -4 15 -10 15 -15z m25 -39 c3 -5 1 -10 -4 -10 -6 0 -11 5 -11 10 0
6 2 10 4 10 3 0 8 -4 11 -10z m36 -108 c12 -31 -3 -28 -18 4 -8 17 -8 24 -1
22 6 -2 15 -14 19 -26z m1994 -2 c4 -6 -15 -10 -49 -10 -31 0 -56 5 -56 10 0
6 22 10 49 10 28 0 53 -4 56 -10z m115 -1 c0 -6 8 -8 19 -4 11 3 22 1 26 -5 7
-12 -18 -13 -95 -3 -53 7 -54 8 -20 14 55 10 70 10 70 -2z"/>
<path d="M1905 590 c-3 -5 -2 -10 4 -10 5 0 13 5 16 10 3 6 2 10 -4 10 -5 0
-13 -4 -16 -10z"/>
<path d="M1716 581 c-14 -5 -16 -10 -7 -15 15 -9 41 -1 41 14 0 11 -7 12 -34
1z"/>
<path d="M707 669 c11 -12 29 -19 39 -17 16 3 13 7 -13 21 -43 23 -52 21 -26
-4z"/>
<path d="M1768 493 c6 -2 18 -2 25 0 6 3 1 5 -13 5 -14 0 -19 -2 -12 -5z"/>
<path d="M2310 479 c0 -5 46 -9 102 -9 56 0 99 2 97 4 -10 8 -199 14 -199 5z"/>
<path d="M2065 465 c-5 -2 -27 -6 -47 -10 -27 -4 -36 -10 -31 -20 8 -22 125
-15 124 8 -1 4 2 7 6 7 4 0 8 -8 8 -18 0 -11 9 -18 25 -20 14 -2 30 -8 37 -13
14 -12 25 3 17 24 -9 25 -107 55 -139 42z"/>
<path d="M2216 441 c-4 -7 -5 -15 -2 -18 9 -9 19 4 14 18 -4 11 -6 11 -12 0z"/>
<path d="M2240 427 c0 -8 9 -17 20 -20 11 -3 18 -1 14 4 -3 5 12 9 32 9 48 0
41 6 -18 14 -38 6 -48 4 -48 -7z"/>
<path d="M2535 430 c-8 -13 -1 -24 14 -19 6 3 7 10 2 18 -6 10 -10 10 -16 1z"/>
<path d="M2370 420 c-11 -7 -4 -10 28 -10 23 0 42 5 42 10 0 13 -50 13 -70 0z"/>
<path d="M2640 408 c1 -21 2 -22 14 -5 16 21 27 22 20 2 -7 -17 21 -21 31 -5
4 7 13 6 27 -1 16 -9 19 -8 16 2 -5 15 -39 26 -80 28 -23 1 -28 -3 -28 -21z"/>
<path d="M2170 330 c-8 -5 -12 -12 -9 -15 4 -3 12 1 19 10 14 17 11 19 -10 5z"/>
<path d="M2240 309 c0 -35 3 -36 23 -5 15 22 15 24 -3 29 -17 4 -20 0 -20 -24z"/>
<path d="M1180 320 l-25 -8 25 -1 c14 0 32 4 40 9 13 9 13 10 0 9 -8 -1 -26
-5 -40 -9z"/>
<path d="M1500 315 c7 -8 16 -12 21 -9 16 9 10 20 -12 21 -17 2 -18 -1 -9 -12z"/>
<path d="M1961 326 c3 -3 42 -6 87 -7 45 -1 85 -6 88 -10 3 -5 2 -9 -3 -9 -29
-2 -223 -22 -248 -26 -16 -2 -67 -4 -113 -4 -46 1 -92 -2 -103 -5 -45 -15 -11
-20 113 -17 158 4 258 -4 255 -21 -1 -7 12 -13 31 -15 118 -12 -100 -32 -342
-32 -62 0 -96 -4 -91 -9 6 -5 121 -11 257 -13 135 -2 250 -7 254 -11 5 -4 2
-12 -6 -18 -10 -6 -3 -7 22 -3 21 3 46 0 55 -6 15 -9 12 -10 -17 -8 -41 4 -47
-10 -30 -71 6 -24 17 -41 25 -41 8 0 15 5 15 10 0 6 9 10 21 10 11 0 18 -4 15
-8 -2 -4 9 -9 25 -10 16 -1 29 3 29 9 0 6 -9 9 -20 6 -25 -6 -26 1 -2 19 16
13 16 13 -1 14 -15 0 -15 3 -5 21 10 17 10 23 1 26 -7 3 -13 11 -13 19 0 8 -6
14 -12 14 -7 1 4 15 24 33 37 32 40 55 7 60 -8 2 -20 6 -26 10 -9 6 -11 3 -7
-7 4 -10 1 -16 -9 -16 -10 0 -14 8 -12 25 1 14 -1 25 -6 25 -5 0 -6 7 -3 15 6
14 -10 19 -53 18 -7 -1 -13 8 -13 18 0 17 -9 19 -97 19 -53 0 -94 -2 -92 -4z
m269 -286 c0 -5 -4 -10 -10 -10 -5 0 -10 5 -10 10 0 6 5 10 10 10 6 0 10 -4
10 -10z"/>
<path d="M2200 319 c0 -5 5 -7 10 -4 6 3 10 8 10 11 0 2 -4 4 -10 4 -5 0 -10
-5 -10 -11z"/>
<path d="M1564 251 c-37 -20 -49 -32 -44 -42 7 -10 13 -8 28 11 14 17 29 23
55 23 29 0 37 4 37 19 0 24 -16 22 -76 -11z"/>
<path d="M2280 250 c0 -5 5 -10 10 -10 6 0 10 5 10 10 0 6 -4 10 -10 10 -5 0
-10 -4 -10 -10z"/>
<path d="M3018 243 c10 -4 9 -9 -4 -24 -9 -11 -14 -22 -11 -25 6 -6 46 34 47
46 0 3 -10 6 -22 7 -13 0 -17 -1 -10 -4z"/>
<path d="M512 119 c3 -29 6 -34 27 -31 14 1 33 10 44 20 18 16 18 17 -10 23
-15 4 -36 10 -46 14 -16 7 -18 3 -15 -26z"/>
<path d="M2325 91 c-8 -36 -1 -51 25 -51 16 0 18 7 16 37 -3 49 -31 58 -41 14z"/>
<path d="M2443 113 c9 -2 23 -2 30 0 6 3 -1 5 -18 5 -16 0 -22 -2 -12 -5z"/>
<path d="M2070 99 c-41 -3 -51 -6 -27 -7 29 -2 37 -6 37 -21 0 -26 -18 -31
-128 -32 -53 0 -119 -4 -147 -9 -38 -5 -15 -8 93 -9 87 0 142 -5 142 -11 0 -5
9 -10 21 -10 12 0 17 4 13 11 -5 8 -1 8 14 0 48 -25 63 -10 53 54 l-6 40 -65
-6z"/>
<path d="M1898 93 c7 -3 16 -2 19 1 4 3 -2 6 -13 5 -11 0 -14 -3 -6 -6z"/>
<path d="M1497 70 c-3 -10 0 -21 7 -24 7 -3 7 -5 -1 -5 -7 -1 -13 -6 -13 -12
0 -6 9 -8 20 -4 15 5 18 3 14 -8 -4 -11 5 -14 40 -14 26 0 46 4 46 8 0 5 -4 9
-10 9 -5 0 -10 13 -10 29 0 33 -22 46 -51 31 -13 -7 -19 -7 -19 0 0 18 -17 11
-23 -10z"/>
<path d="M444 65 c-4 -9 -19 -15 -37 -15 -33 0 -28 -14 8 -24 11 -3 5 -4 -12
-2 -22 2 -33 -2 -33 -11 0 -18 146 -19 152 0 7 19 -27 48 -41 34 -8 -8 -11 -5
-11 11 0 25 -18 30 -26 7z"/>
<path d="M1663 34 c7 -8 77 -8 84 0 4 3 -15 6 -42 6 -27 0 -46 -3 -42 -6z"/>
<path d="M2334 15 c-18 -14 -18 -14 9 -15 15 0 27 4 27 9 0 18 -17 20 -36 6z"/>
</g>
</svg>
